# xmcd
#
# Track frame offsets:
#	150
#	11665
#	24359
#	35961
#	48893
#	55276
#	71950
#	82731
#	93127
#	101127
#	115056
#	120135
#	127679
#	137229
#	150814
#	161838
#	172334
#	187484
#	207297
#	218714
#	232947
#	247231
#	261031
#	274920
#
# Disc length: 3777 seconds
#
# Revision: 1
# Processed by: cddbd v1.5.1PL2 Copyright (c) Steve Scherf et al.
# Submitted via: audiograbber 1.83.01
#
DISCID=510ebf18
DTITLE=Leadbelly - Goodnight Irene
DYEAR=2003
DGENRE=Blues
TTITLE0=In the evening when the sun goes down
TTITLE1=C C rider
TTITLE2=We shall be free
TTITLE3=Keep your hand off her
TTITLE4=There's a man going round taking names
TTITLE5=T B blues
TTITLE6=Jim Crow blues
TTITLE7=The bourgeois blues
TTITLE8=Army life
TTITLE9=Mr. Hitler
TTITLE10=Julie and Johnson
TTITLE11=Jean Harlow
TTITLE12=Corn bread rough
TTITLE13=National defence blues
TTITLE14=Little children's blues
TTITLE15=The blood done sign my name
TTITLE16=Boll wevil
TTITLE17=Match box blues
TTITLE18=Rock island line
TTITLE19=Alberta
TTITLE20=I'm on my last go round
TTITLE21=Alabama bound
TTITLE22=Midnight special
TTITLE23=Goodnight Irene
EXTD=
EXTT0=
EXTT1=
EXTT2=
EXTT3=
EXTT4=
EXTT5=
EXTT6=
EXTT7=
EXTT8=
EXTT9=
EXTT10=
EXTT11=
EXTT12=
EXTT13=
EXTT14=
EXTT15=
EXTT16=
EXTT17=
EXTT18=
EXTT19=
EXTT20=
EXTT21=
EXTT22=
EXTT23=
PLAYORDER=
